<svg width="120" height="30" viewBox="0 0 120 30" fill="none" xmlns="http://www.w3.org/2000/svg">
<path d="M14.0234 15.9023H9.04883V21H5.96387V8.20312H14.5244V10.585H9.04883V13.5293H14.0234V15.9023ZM26.6445 14.8652C26.6445 16.1133 26.4131 17.2178 25.9502 18.1787C25.4873 19.1396 24.8281 19.8809 23.9727 20.4023C23.123 20.918 22.1533 21.1758 21.0635 21.1758C19.9736 21.1758 19.0068 20.9268 18.1631 20.4287C17.3193 19.9248 16.6602 19.207 16.1855 18.2754C15.7168 17.3438 15.4707 16.2744 15.4473 15.0674V14.3467C15.4473 13.0928 15.6758 11.9883 16.1328 11.0332C16.5957 10.0723 17.2549 9.33105 18.1104 8.80957C18.9717 8.28809 19.9502 8.02734 21.0459 8.02734C22.1299 8.02734 23.0967 8.28516 23.9463 8.80078C24.7959 9.31641 25.4551 10.0518 25.9238 11.0068C26.3984 11.9561 26.6387 13.0459 26.6445 14.2764V14.8652ZM23.5068 14.3291C23.5068 13.0576 23.293 12.0938 22.8652 11.4375C22.4434 10.7754 21.8369 10.4443 21.0459 10.4443C19.499 10.4443 18.6816 11.6045 18.5938 13.9248L18.585 14.8652C18.585 16.1191 18.793 17.083 19.209 17.7568C19.625 18.4307 20.2432 18.7676 21.0635 18.7676C21.8428 18.7676 22.4434 18.4365 22.8652 17.7744C23.2871 17.1123 23.501 16.1602 23.5068 14.918V14.3291ZM32.8145 12.457L34.9062 8.20312H38.4307L34.8535 14.5488L38.5273 21H34.9678L32.8145 16.667L30.6611 21H27.1104L30.7754 14.5488L27.207 8.20312H30.7227L32.8145 12.457ZM48.3711 16.2363L47.1055 17.625V21H44.0205V8.20312H47.1055V13.8457L48.1777 12.2197L50.9375 8.20312H54.752L50.4277 13.8633L54.752 21H51.0957L48.3711 16.2363ZM62.8027 18.6094H58.5752L57.8369 21H54.541L59.2344 8.20312H62.1348L66.8633 21H63.5498L62.8027 18.6094ZM59.3135 16.2275H62.0645L60.6846 11.7891L59.3135 16.2275ZM78.4912 21H75.4238L70.8887 13.0371V21H67.8037V8.20312H70.8887L75.415 16.166V8.20312H78.4912V21ZM80.4424 21V8.20312H85.0391C86.6855 8.20312 87.9365 8.50488 88.792 9.1084C89.6533 9.71191 90.084 10.5879 90.084 11.7363C90.084 12.3984 89.9316 12.9639 89.627 13.4326C89.3223 13.9014 88.874 14.2471 88.2822 14.4697C88.9502 14.6455 89.4629 14.9736 89.8203 15.4541C90.1777 15.9346 90.3564 16.5205 90.3564 17.2119C90.3564 18.4658 89.958 19.4092 89.1611 20.042C88.3701 20.6689 87.1953 20.9883 85.6367 21H80.4424ZM83.5273 15.5596V18.627H85.5488C86.1055 18.627 86.5332 18.501 86.832 18.249C87.1309 17.9912 87.2803 17.6309 87.2803 17.168C87.2803 16.1016 86.75 15.5654 85.6895 15.5596H83.5273ZM83.5273 13.5381H85.1357C85.8096 13.5322 86.29 13.4092 86.5771 13.1689C86.8643 12.9287 87.0078 12.5742 87.0078 12.1055C87.0078 11.5664 86.8525 11.1797 86.542 10.9453C86.2314 10.7051 85.7305 10.585 85.0391 10.585H83.5273V13.5381ZM99.3301 18.6094H95.1025L94.3643 21H91.0684L95.7617 8.20312H98.6621L103.391 21H100.077L99.3301 18.6094ZM95.8408 16.2275H98.5918L97.2119 11.7891L95.8408 16.2275ZM115.019 21H111.951L107.416 13.0371V21H104.331V8.20312H107.416L111.942 16.166V8.20312H115.019V21Z" fill="black"/>
</svg>
